
<region>
sample=../Samples/oh/htom/oh_htom_offcenter_vl1.flac
hivel=7

<region>
sample=../Samples/oh/htom/oh_htom_offcenter_vl2.flac
lovel=8
hivel=15

<region>
sample=../Samples/oh/htom/oh_htom_offcenter_vl3.flac
lovel=16
hivel=23

<region>
sample=../Samples/oh/htom/oh_htom_offcenter_vl4.flac
lovel=24
hivel=31

<region>
sample=../Samples/oh/htom/oh_htom_offcenter_vl5.flac
lovel=32
hivel=39

<region>
sample=../Samples/oh/htom/oh_htom_offcenter_vl6.flac
lovel=40
hivel=47

<region>
sample=../Samples/oh/htom/oh_htom_offcenter_vl7.flac
lovel=48
hivel=55

<region>
sample=../Samples/oh/htom/oh_htom_offcenter_vl8.flac
lovel=56
hivel=63

<region>
sample=../Samples/oh/htom/oh_htom_offcenter_vl9.flac
lovel=64
hivel=71

<region>
sample=../Samples/oh/htom/oh_htom_offcenter_vl10.flac
lovel=72
hivel=79

<region>
sample=../Samples/oh/htom/oh_htom_offcenter_vl11.flac
lovel=80
hivel=87

<region>
sample=../Samples/oh/htom/oh_htom_offcenter_vl12.flac
lovel=88
hivel=95

<region>
sample=../Samples/oh/htom/oh_htom_offcenter_vl13.flac
lovel=96
hivel=103

<region>
sample=../Samples/oh/htom/oh_htom_offcenter_vl14.flac
lovel=104
hivel=111

<region>
sample=../Samples/oh/htom/oh_htom_offcenter_vl15.flac
lovel=112
hivel=119

<region>
sample=../Samples/oh/htom/oh_htom_offcenter_vl16.flac
lovel=120